<svg xmlns="http://www.w3.org/2000/svg" width="512" height="512" viewBox="0 0 512 512" fill="none">
  <defs>
    <linearGradient id="shieldGrad" x1="150" y1="90" x2="355" y2="360" gradientUnits="userSpaceOnUse">
      <stop offset="0%" stop-color="#0C74D6"/>
      <stop offset="55%" stop-color="#0A57C6"/>
      <stop offset="100%" stop-color="#27C3D9"/>
    </linearGradient>
    <linearGradient id="innerGrad" x1="205" y1="130" x2="330" y2="320" gradientUnits="userSpaceOnUse">
      <stop offset="0%" stop-color="#0B3E96"/>
      <stop offset="100%" stop-color="#0A6AD2"/>
    </linearGradient>
    <linearGradient id="checkGrad" x1="210" y1="170" x2="335" y2="330" gradientUnits="userSpaceOnUse">
      <stop offset="0%" stop-color="#0D2E7F"/>
      <stop offset="100%" stop-color="#0A48B8"/>
    </linearGradient>
    <linearGradient id="highlightGrad" x1="305" y1="120" x2="370" y2="300" gradientUnits="userSpaceOnUse">
      <stop offset="0%" stop-color="#48D3E4" stop-opacity="0.95"/>
      <stop offset="100%" stop-color="#48D3E4" stop-opacity="0.15"/>
    </linearGradient>
    <linearGradient id="leafGrad" x1="110" y1="250" x2="405" y2="390" gradientUnits="userSpaceOnUse">
      <stop offset="0%" stop-color="#0E86DA"/>
      <stop offset="100%" stop-color="#28C7DA"/>
    </linearGradient>
  </defs>

  <!-- laurels -->
  <g>
    <ellipse cx="126.1" cy="210.0" rx="9.9" ry="18.0" transform="rotate(300.0 126.1 210.0)" fill="url(#leafGrad)" opacity="0.92" />
<ellipse cx="146.3" cy="182.7" rx="9.2" ry="16.8" transform="rotate(313.0 146.3 182.7)" fill="url(#leafGrad)" opacity="0.87" />
<ellipse cx="172.1" cy="160.6" rx="8.6" ry="15.6" transform="rotate(326.0 172.1 160.6)" fill="url(#leafGrad)" opacity="0.82" />
<ellipse cx="202.2" cy="145.0" rx="7.9" ry="14.4" transform="rotate(339.0 202.2 145.0)" fill="url(#leafGrad)" opacity="0.77" />
<ellipse cx="235.1" cy="136.5" rx="7.3" ry="13.2" transform="rotate(352.0 235.1 136.5)" fill="url(#leafGrad)" opacity="0.72" />
<ellipse cx="269.1" cy="135.6" rx="6.6" ry="12.0" transform="rotate(365.0 269.1 135.6)" fill="url(#leafGrad)" opacity="0.67" />
    <ellipse cx="385.9" cy="210.0" rx="9.9" ry="18.0" transform="rotate(-120.0 385.9 210.0)" fill="url(#leafGrad)" opacity="0.92" />
<ellipse cx="365.7" cy="182.7" rx="9.2" ry="16.8" transform="rotate(-133.0 365.7 182.7)" fill="url(#leafGrad)" opacity="0.87" />
<ellipse cx="339.9" cy="160.6" rx="8.6" ry="15.6" transform="rotate(-146.0 339.9 160.6)" fill="url(#leafGrad)" opacity="0.82" />
<ellipse cx="309.8" cy="145.0" rx="7.9" ry="14.4" transform="rotate(-159.0 309.8 145.0)" fill="url(#leafGrad)" opacity="0.77" />
<ellipse cx="276.9" cy="136.5" rx="7.3" ry="13.2" transform="rotate(-172.0 276.9 136.5)" fill="url(#leafGrad)" opacity="0.72" />
<ellipse cx="242.9" cy="135.6" rx="6.6" ry="12.0" transform="rotate(-185.0 242.9 135.6)" fill="url(#leafGrad)" opacity="0.67" />
    <path d="M216 380C229 392 243 398 256 398C269 398 283 392 296 380" stroke="#1BAED9" stroke-width="12" stroke-linecap="round" opacity="0.9"/>
  </g>

  <!-- shield -->
  <path d="M256 84
           C205 124 164 141 138 145
           C141 237 177 317 256 377
           C335 317 371 237 374 145
           C348 141 307 124 256 84Z"
        fill="url(#shieldGrad)"/>

  <path d="M256 115
           C218 142 187 154 168 157
           C172 227 199 288 256 333
           C313 288 340 227 344 157
           C325 154 294 142 256 115Z"
        fill="url(#innerGrad)" opacity="0.92"/>

  <!-- outer check / chevron -->
  <path d="M188 180
           L246 253
           L334 152
           L359 163
           L256 330
           L168 202
           Z" fill="url(#checkGrad)"/>

  <!-- top inner tick -->
  <path d="M214 171
           L244 204
           L308 145
           L330 150
           L244 232
           L193 182
           Z" fill="#0B5FC8" opacity="0.95"/>

  <!-- highlight -->
  <path d="M318 142
           C334 147 347 151 359 163
           L276 312
           C269 305 262 299 255 293
           Z" fill="url(#highlightGrad)"/>

  <!-- subtle outline -->
  <path d="M256 84
           C205 124 164 141 138 145
           C141 237 177 317 256 377
           C335 317 371 237 374 145
           C348 141 307 124 256 84Z"
        stroke="#0C3B8E" stroke-opacity="0.45" stroke-width="3"/>
</svg>
